<svg xmlns="http://www.w3.org/2000/svg" viewBox="0 0 1024 1024" role="img" aria-labelledby="title desc">
  <title id="title">PhonoDeck headset note icon</title>
  <desc id="desc">Light app tile with a gray headset silhouette, white ear cushions, a white inner arch, and a blue music note.</desc>
  <rect x="64" y="64" width="896" height="896" rx="122" fill="#f7f7fb"/>
  <path fill="#909297" d="M512 86C300 86 154 252 120 480C91 515 75 558 78 608C80 640 96 668 124 692L139 834C143 875 175 900 215 894L238 891C271 886 292 855 286 822L258 658C249 603 268 562 305 555C340 549 363 573 373 621L404 766C417 828 458 864 512 864C566 864 607 828 620 766L651 621C661 573 684 549 719 555C756 562 775 603 766 658L738 822C732 855 753 886 786 891L809 894C849 900 881 875 885 834L900 692C928 668 944 640 946 608C949 558 933 515 904 480C870 252 724 86 512 86Z"/>
  <path d="M166 520C211 296 344 164 512 164C680 164 813 296 858 520" fill="none" stroke="#f7f7fb" stroke-width="15" stroke-linecap="round"/>
  <path fill="#ffffff" d="M235 423C185 432 165 496 178 575L211 774C222 840 264 858 302 820C337 785 347 728 334 660L304 492C296 449 270 417 235 423Z"/>
  <path fill="#ffffff" d="M789 423C839 432 859 496 846 575L813 774C802 840 760 858 722 820C687 785 677 728 690 660L720 492C728 449 754 417 789 423Z"/>
  <path fill="#1698f4" d="M530 322C530 303 543 287 562 282L696 247C727 239 756 262 756 294V374C756 394 743 411 724 416L604 448V600C604 621 587 638 566 638C546 638 530 622 530 602V322Z"/>
  <ellipse cx="451" cy="673" rx="116" ry="75" transform="rotate(-9 451 673)" fill="#1698f4"/>
</svg>